# File created by Blade
# Date/Time:  Wed Apr 08 17:17:01 2015
# Frame Rate: 120.000 fps
#------------------------------------------------------
:FULLY-SPECIFIED
:DEGREES
894
root 5.249238 36.440264 5.689863 146.390023 -62.824704 -147.978567
Spine 13.622923 2.119616 8.395696
Head 10.137095 10.744423 7.466573
LeftShoulder -6.787632 15.670112 15.801929
LeftArm 17.176313 28.205650 -74.349777
LeftForeArm 27.845683 -0.000000 21.906300
LeftHand -9.100054 -0.000000 -20.436156
LeftHandThumb1 -26.253704 0.000000 33.147579
RightShoulder -30.977338 -48.068197 22.748348
RightArm 55.080021 -11.472149 60.223148
RightForeArm 39.958981 0.000000 13.273912
RightHand 0.234011 -0.000000 8.840798
RightHandThumb1 -24.326973 -0.000000 -32.862282
LeftUpLeg 5.282538 38.891624 8.282016
LeftLeg 12.164047 -0.000000 -0.000000
LeftFoot -21.078465 13.555437 -8.926436
LeftToeBase 6.284361 -0.000000 -0.000000
RightUpLeg -49.049197 -24.510574 -25.972122
RightLeg 152.214476 -0.000000 -0.000000
RightFoot 33.886801 10.198798 11.470527
RightToeBase 1.583379 -0.000000 -0.000000
895
root 5.265353 36.447632 5.679345 146.471621 -62.590939 -147.898179
Spine 13.581991 2.071748 8.449725
Head 9.980022 10.624415 7.577016
LeftShoulder -6.795664 15.626742 15.857696
LeftArm 17.152870 28.174084 -74.308881
LeftForeArm 27.895861 -0.000000 21.942230
LeftHand -9.103946 -0.000000 -20.408054
LeftHandThumb1 -26.253704 0.000000 33.147579
RightShoulder -30.972263 -48.057377 22.777326
RightArm 54.982360 -11.411960 60.272810
RightForeArm 39.958151 -0.000000 13.293915
RightHand 0.294496 -0.000000 8.729173
RightHandThumb1 -24.326973 -0.000000 -32.862282
LeftUpLeg 5.015633 38.963727 8.328578
LeftLeg 12.323112 -0.000000 -0.000000
LeftFoot -21.130808 13.710852 -8.907631
LeftToeBase 6.177923 -0.000000 -0.000000
RightUpLeg -48.877415 -24.573465 -26.038558
RightLeg 152.144027 -0.000000 -0.000000
RightFoot 33.859903 10.193342 11.501813
RightToeBase 1.181975 -0.000000 -0.000000
896
root 5.278984 36.450896 5.668512 146.703386 -62.547167 -147.915804
Spine 13.437774 1.952643 8.299438
Head 9.828771 10.484283 7.784628
LeftShoulder -6.789024 15.623675 15.977085
LeftArm 17.170765 28.169677 -74.220384
LeftForeArm 27.946328 -0.000000 21.997302
LeftHand -9.418712 -0.000000 -20.281230
LeftHandThumb1 -26.253704 0.000000 33.147579
RightShoulder -31.116805 -48.068171 23.001676
RightArm 54.946776 -11.345029 60.279046
RightForeArm 40.054102 -0.000000 13.300417
RightHand 0.275784 -0.000000 8.596114
RightHandThumb1 -24.326973 -0.000000 -32.862282
LeftUpLeg 4.623906 38.877700 8.149753
LeftLeg 12.486943 -0.000000 -0.000000
LeftFoot -21.164482 13.861536 -8.946020
LeftToeBase 6.116599 -0.000000 -0.000000
RightUpLeg -48.659411 -24.801784 -26.332632
RightLeg 152.081197 -0.000000 -0.000000
RightFoot 33.874599 10.275268 11.372429
RightToeBase 1.602155 -0.000000 -0.000000
897
root 5.294827 36.457508 5.660857 146.841716 -62.349685 -147.884278
Spine 13.386922 1.887237 8.310218
Head 9.680061 10.383377 7.877123
LeftShoulder -6.801641 15.609688 16.033003
LeftArm 17.171300 28.122476 -74.180550
LeftForeArm 27.881181 -0.000000 22.014001
LeftHand -9.385038 -0.000000 -20.284430
LeftHandThumb1 -26.253704 0.000000 33.147579
RightShoulder -31.195771 -48.075199 23.097851
RightArm 54.925552 -11.281261 60.275476
RightForeArm 40.036035 -0.000000 13.285008
RightHand 0.232020 -0.000000 8.845499
RightHandThumb1 -24.326973 -0.000000 -32.862282
LeftUpLeg 4.338489 38.921229 8.143930
LeftLeg 12.643963 -0.000000 -0.000000
LeftFoot -21.208643 13.989108 -8.958298
LeftToeBase 6.057455 -0.000000 -0.000000
RightUpLeg -48.441181 -24.871613 -26.501522
RightLeg 152.026685 -0.000000 -0.000000
RightFoot 33.663494 10.476333 11.168443
RightToeBase 2.017308 -0.000000 -0.000000
